<svg preserveAspectRatio="none" overflow="visible" style="display: block;" width="246.846" height="121.553" viewBox="0 0 246.846 121.553" fill="none" xmlns="http://www.w3.org/2000/svg">
<path id="Union" d="M107.527 0C110.626 0 113.138 2.51197 113.138 5.61035V40.2061C113.138 43.3044 115.65 45.8164 118.748 45.8164H241.235C244.334 45.8165 246.846 48.3276 246.846 51.4258V115.942C246.846 119.041 244.334 121.553 241.235 121.553H5.61035C2.51197 121.553 0 119.041 0 115.942V5.61035C0 2.51197 2.51197 0 5.61035 0H107.527ZM122.487 56.1016C121.455 56.1018 120.617 56.939 120.617 57.9717V104.426C120.617 105.458 121.455 106.296 122.487 106.296H230.37C231.403 106.296 232.24 105.458 232.24 104.426V57.9717C232.24 56.9389 231.403 56.1016 230.37 56.1016H122.487ZM57.9717 14.0254C31.6355 14.0254 10.2854 35.3749 10.2852 61.7109C10.2852 73.4794 14.551 84.2503 21.6172 92.5674H94.3262C101.392 84.2504 105.657 73.4792 105.657 61.7109C105.657 35.375 84.3076 14.0256 57.9717 14.0254Z" fill="white"/>
</svg>
